<?xml version="1.0" standalone="no"?>
<!DOCTYPE svg PUBLIC "-//W3C//DTD SVG 20010904//EN"
 "http://www.w3.org/TR/2001/REC-SVG-20010904/DTD/svg10.dtd">
<svg version="1.0" xmlns="http://www.w3.org/2000/svg"
 width="729.000000pt" height="729.000000pt" viewBox="0 0 729.000000 729.000000"
 preserveAspectRatio="xMidYMid meet">
<metadata>
Created by potrace 1.14, written by Peter Selinger 2001-2017
</metadata>
<g transform="translate(0.000000,729.000000) scale(0.100000,-0.100000)"
fill="#000000" stroke="none">
<path d="M3792 7275 c-17 -8 -33 -21 -33 -30 -1 -8 -2 -21 -3 -27 -1 -7 1 -26
6 -43 4 -16 10 -45 13 -64 8 -44 32 -101 43 -101 11 0 36 28 51 57 9 18 8 33
-3 70 -8 27 -18 69 -21 95 -3 26 -9 49 -13 52 -4 2 -22 -2 -40 -9z"/>
<path d="M4532 7247 c-6 -7 -14 -31 -17 -52 -8 -59 -14 -246 -8 -262 8 -21 31
-15 59 15 24 25 26 37 31 127 2 55 5 111 6 125 2 14 -1 33 -6 43 -9 20 -50 23
-65 4z"/>
<path d="M5008 7153 c-18 -5 -48 -81 -48 -123 0 -34 -19 -58 -50 -62 -33 -4
-30 -30 14 -104 19 -33 39 -79 46 -103 15 -57 31 -81 53 -81 21 0 54 52 63 98
5 24 11 32 28 32 28 0 62 24 69 50 4 15 -3 25 -24 37 -31 19 -31 22 3 122 10
30 18 56 18 58 0 10 -51 1 -64 -12 -14 -14 -36 -74 -36 -100 -1 -26 -17 -36
-42 -26 l-26 10 14 73 c22 116 19 139 -18 131z"/>
<path d="M2560 6691 c0 -5 5 -13 10 -16 6 -3 10 -2 10 4 0 5 -4 13 -10 16 -5
3 -10 2 -10 -4z"/>
<path d="M2481 6646 c-10 -12 -6 -22 21 -53 19 -21 48 -57 64 -80 41 -57 76
-83 120 -90 51 -8 41 16 -14 35 -24 8 -44 21 -47 33 -6 18 -121 169 -129 169
-2 0 -9 -6 -15 -14z"/>
<path d="M3118 6488 c-6 -17 38 -121 56 -133 19 -12 32 0 18 17 -9 11 -25 73
-27 102 0 14 -43 27 -47 14z"/>
<path d="M1853 6407 c-21 -19 -89 -65 -151 -103 -108 -65 -150 -103 -123 -112
6 -2 9 -8 5 -13 -3 -5 6 -14 20 -20 l24 -11 -25 -23 c-15 -12 -22 -24 -17 -27
14 -9 83 17 107 40 12 11 79 50 149 86 l126 65 16 -39 c18 -46 32 -56 52 -39
13 10 12 14 -6 31 -12 11 -26 31 -31 45 -7 18 -15 24 -28 20 -14 -3 -23 6 -40
40 -11 24 -21 52 -21 63 0 33 -18 32 -57 -3z"/>
<path d="M2905 6432 c-37 -27 8 -59 93 -68 75 -8 83 7 13 25 -27 7 -57 21 -67
32 -19 21 -24 22 -39 11z"/>
<path d="M3380 6309 c-116 -14 -144 -18 -175 -24 -16 -3 -52 -10 -80 -15 -27
-5 -61 -12 -75 -15 -14 -3 -35 -8 -48 -11 -17 -3 -151 -44 -257 -78 -51 -16
-242 -99 -320 -139 -394 -201 -749 -517 -1009 -899 -36 -54 -66 -99 -66 -101
0 -2 -22 -42 -48 -88 -85 -149 -190 -396 -228 -538 -38 -137 -50 -190 -70
-306 -16 -92 -18 -109 -30 -250 -13 -142 -6 -448 11 -530 2 -11 6 -38 9 -61
18 -147 85 -398 153 -574 49 -125 149 -330 195 -397 15 -23 28 -44 28 -48 0
-7 76 -117 138 -200 104 -137 271 -315 402 -426 l54 -46 -86 -27 c-48 -14 -94
-33 -102 -41 -10 -10 -24 -13 -41 -9 -18 4 -60 -5 -126 -26 -55 -18 -98 -35
-96 -36 2 -2 48 7 101 21 111 28 109 28 102 17 -2 -4 -2 -13 2 -19 5 -8 25 0
61 24 72 48 120 59 143 33 23 -28 32 -25 46 15 l13 34 80 -59 c259 -192 573
-343 894 -430 44 -12 91 -24 105 -26 14 -3 32 -7 40 -9 8 -2 31 -7 50 -10 19
-3 60 -10 90 -16 166 -30 662 -33 770 -4 8 2 33 6 55 9 22 4 64 11 94 17 59
12 68 8 77 -37 6 -30 3 -33 -55 -68 -115 -70 -148 -77 -373 -76 -110 0 -212 3
-226 6 -15 4 -47 22 -71 40 -24 19 -52 34 -62 34 -29 0 -69 -19 -69 -32 0 -8
32 -33 72 -58 39 -24 78 -56 87 -72 10 -17 24 -28 37 -28 12 0 48 -14 80 -31
47 -25 72 -32 119 -32 54 -1 166 9 215 18 10 2 47 6 82 9 35 4 99 20 143 36
44 16 86 30 92 30 14 0 77 -127 118 -236 14 -36 38 -82 53 -102 16 -21 43 -67
60 -103 18 -37 49 -84 69 -106 97 -100 103 -111 99 -158 -3 -34 -1 -45 9 -45
21 0 27 16 29 81 3 55 1 61 -25 79 -15 11 -30 20 -34 20 -3 0 -26 18 -50 41
-50 47 -80 102 -84 154 -1 6 -15 26 -31 45 -33 38 -74 117 -131 255 l-37 90
26 23 c15 12 52 34 82 48 30 15 64 34 75 43 11 10 45 28 75 40 30 13 129 62
220 111 91 48 194 100 230 116 205 89 381 195 452 271 24 26 57 60 74 77 38
39 81 98 97 133 7 16 33 60 58 98 25 39 84 140 131 225 47 85 96 173 109 196
56 94 178 311 190 336 7 16 16 28 21 28 4 0 8 6 8 13 0 7 26 53 58 102 74 114
147 196 242 273 l24 19 -51 54 c-28 30 -66 72 -84 94 -73 86 -67 82 -87 55 -9
-13 -25 -38 -35 -54 -10 -18 -16 -23 -13 -11 5 22 32 179 41 235 18 127 24
397 12 555 -11 138 -18 189 -52 367 -26 132 -124 414 -198 567 -68 142 -226
406 -257 431 -3 3 -17 21 -30 40 -13 19 -27 37 -30 40 -3 3 -25 30 -49 60
-119 148 -358 364 -545 494 -289 201 -682 364 -1016 422 -25 4 -47 8 -50 9 -3
1 -27 4 -55 8 -27 4 -66 10 -85 13 -59 10 -491 12 -560 3z m1844 -4827 c-47
-43 -132 -97 -140 -89 -2 2 12 12 31 23 19 10 35 22 35 26 0 5 6 8 13 8 6 0
32 18 57 40 63 55 66 49 4 -8z m-679 -365 c-38 -25 -266 -149 -268 -146 -1 2
-10 18 -19 36 l-16 32 31 7 c18 3 75 20 127 36 52 16 103 31 114 33 10 3 21 7
24 10 3 3 10 5 16 5 6 0 2 -6 -9 -13z"/>
<path d="M1840 6075 c0 -8 7 -15 15 -15 8 0 15 7 15 15 0 8 -7 15 -15 15 -8 0
-15 -7 -15 -15z"/>
<path d="M1144 1925 c-10 -8 -16 -15 -12 -15 10 0 -29 -87 -53 -119 -29 -36
-79 -163 -94 -240 -2 -9 -12 -51 -24 -94 -11 -42 -23 -103 -26 -135 -4 -31
-13 -62 -20 -68 -8 -5 -35 -11 -60 -13 -47 -2 -81 -16 -89 -37 -3 -8 7 -7 32
2 49 17 132 18 132 2 0 -7 -7 -35 -15 -61 -8 -27 -14 -77 -13 -111 1 -34 -2
-67 -6 -74 -4 -7 -3 -27 3 -45 6 -17 12 -103 15 -189 2 -87 7 -161 9 -165 3
-5 8 -29 11 -55 10 -75 54 -238 75 -277 55 -104 69 -126 104 -163 36 -38 41
-40 81 -35 70 10 216 67 216 85 0 8 -18 40 -41 69 -56 74 -95 161 -124 279
-24 94 -31 160 -39 394 -3 66 -10 115 -19 133 -12 24 -13 37 -1 92 8 36 15 79
16 95 3 37 3 37 148 135 142 96 159 111 102 89 -23 -10 -60 -34 -82 -54 -22
-20 -59 -42 -82 -49 -24 -7 -50 -14 -59 -17 -14 -4 -13 7 7 88 13 51 26 102
28 113 21 107 62 205 86 205 12 0 22 17 33 60 32 115 25 126 -120 166 -104 28
-94 28 -119 9z"/>
<path d="M2908 1002 c-40 -8 -1 -44 60 -56 19 -3 48 -16 65 -28 32 -23 70 -26
92 -8 7 6 29 11 48 12 29 1 45 -7 80 -39 24 -23 54 -46 67 -53 l22 -12 -18 32
c-28 48 -90 110 -111 111 -81 4 -136 12 -188 25 -68 18 -93 22 -117 16z"/>
<path d="M2512 301 c-18 -32 -32 -67 -32 -78 0 -30 28 -62 65 -72 47 -13 66
-6 91 32 21 33 47 127 35 127 -46 3 -90 16 -106 31 -20 18 -21 18 -53 -40z"/>
</g>
</svg>
